<svg width="185" height="39" viewBox="0 0 185 39" fill="none" xmlns="http://www.w3.org/2000/svg">
<g clip-path="url(#clip0_7029_133)">
<path d="M75.48 39H4.4992C2.0128 39 0 36.9678 0 34.4575V4.54253C0 2.03218 2.0128 0 4.4992 0H75.48V39Z" fill="url(#paint0_linear_7029_133)"/>
<path d="M180.501 39H75.4805V0H180.501C182.988 0 185 2.03218 185 4.54253V34.4724C185 36.9678 182.988 39 180.501 39Z" fill="url(#paint1_linear_7029_133)"/>
<path d="M23.0567 23.6539C23.0567 25.1332 22.8495 26.3136 22.4499 27.1953C22.0503 28.0769 21.5175 28.7493 20.8811 29.1976C20.2447 29.6608 19.5343 29.9596 18.7499 30.109C17.9655 30.2585 17.1959 30.3332 16.4411 30.3332H8.9375V8.83089H17.1959C18.2615 8.83089 19.1199 9.0102 19.8007 9.36882C20.4815 9.72744 21.0143 10.1907 21.4139 10.7734C21.8135 11.3562 22.0799 11.9987 22.2279 12.701C22.3759 13.4033 22.4351 14.1056 22.4203 14.778C22.3907 16.7355 21.9023 18.0654 20.9551 18.7677C21.5767 19.0665 22.0799 19.6044 22.4795 20.3815C22.8643 21.1734 23.0567 22.2642 23.0567 23.6539ZM18.4391 14.8527C18.4391 14.1803 18.3651 13.6723 18.2023 13.3435C18.0395 13.0148 17.7287 12.8504 17.2551 12.8504H12.9779V17.1389H16.8703C17.4771 17.1389 17.8767 16.9297 18.0987 16.5263C18.3207 16.1079 18.4391 15.5401 18.4391 14.8527ZM19.0015 23.6838C19.0015 23.0861 18.9571 22.6079 18.8535 22.2642C18.7647 21.9205 18.6315 21.6366 18.4835 21.4424C18.3355 21.2481 18.1727 21.1136 17.9803 21.0539C17.8027 20.9941 17.6251 20.9642 17.4475 20.9642H12.9779V26.1194H17.1071C17.8175 26.1194 18.3207 25.9251 18.5871 25.5516C18.8683 25.1631 19.0015 24.5504 19.0015 23.6838ZM39.2479 30.3332H25.7207V8.83089H39.0111V12.9999H29.7463V16.9596H38.2711V21.1286H29.7463V26.1343H39.2479V30.3332ZM54.9063 23.9826C54.9063 28.5102 52.4939 30.7815 47.6691 30.7815C45.3307 30.7815 43.5399 30.109 42.3115 28.7792C41.0831 27.4343 40.4763 25.3723 40.4763 22.578H44.3983C44.4279 23.1907 44.5019 23.7734 44.6055 24.2815C44.7091 24.8044 44.9015 25.2378 45.1679 25.6113C45.4343 25.9849 45.7747 26.2688 46.2039 26.478C46.6331 26.6872 47.1807 26.7918 47.8467 26.7918C48.9419 26.7918 49.7263 26.5826 50.2147 26.1792C50.7031 25.7757 50.9547 24.9688 50.9547 23.8033C50.9547 23.1907 50.8511 22.7424 50.6587 22.4734C50.4663 22.2044 50.1555 21.9953 49.7411 21.8309C49.2675 21.6516 48.6903 21.5171 48.0243 21.4125C47.3583 21.3079 46.5887 21.1435 45.7303 20.9044C45.0643 20.7102 44.4427 20.4861 43.8803 20.232C43.3179 19.978 42.8147 19.6343 42.3855 19.1711C41.9563 18.7079 41.6307 18.1102 41.3939 17.378C41.1571 16.6458 41.0387 15.6746 41.0387 14.4792C41.0387 13.5976 41.1423 12.8355 41.3643 12.193C41.5715 11.5504 41.8675 10.9976 42.2227 10.5493C42.5779 10.101 42.9923 9.74238 43.4511 9.45847C43.9247 9.17457 44.3983 8.96537 44.8867 8.81595C45.3751 8.66652 45.8635 8.56192 46.3519 8.5171C46.8403 8.47227 47.2991 8.44238 47.6987 8.44238C49.0899 8.44238 50.2295 8.66652 51.0879 9.09985C51.9611 9.53319 52.6271 10.1159 53.1155 10.8033C53.6039 11.5056 53.9295 12.2976 54.0923 13.1642C54.2551 14.0458 54.3439 14.9125 54.3439 15.7642H50.4959C50.4367 15.4056 50.3923 15.0022 50.3479 14.5688C50.3183 14.1355 50.2147 13.747 50.0667 13.4332C49.9335 13.1493 49.7115 12.8953 49.3711 12.6711C49.0307 12.447 48.4979 12.3274 47.7727 12.3274C47.2103 12.3274 46.7367 12.3723 46.3667 12.4769C45.9967 12.5815 45.7155 12.7309 45.5083 12.9251C45.3011 13.1194 45.1531 13.3884 45.0791 13.7022C45.0051 14.0159 44.9607 14.4045 44.9607 14.8378C44.9607 15.3608 45.0791 15.7343 45.3011 15.9585C45.5231 16.1826 45.9523 16.3769 46.5739 16.5412C47.2251 16.7205 47.8763 16.87 48.5423 16.9895C49.2083 17.109 49.8447 17.2585 50.4663 17.4228C51.0879 17.5872 51.6651 17.8113 52.1979 18.0953C52.7307 18.3792 53.2043 18.7527 53.6039 19.2458C54.0035 19.7389 54.3291 20.3665 54.5511 21.1286C54.8027 21.8907 54.9063 22.847 54.9063 23.9826ZM69.6027 12.9849H64.7335V30.3332H60.6931V12.9849H55.8239V8.83089H69.5879V12.9849H69.6027Z" fill="white"/>
<path d="M95.7113 22.429C95.6225 23.5497 95.4301 24.6106 95.1341 25.6267C94.8381 26.6428 94.4089 27.5244 93.8465 28.2715C93.2841 29.0336 92.5441 29.6313 91.6413 30.0796C90.7385 30.5278 89.6433 30.752 88.3557 30.752C86.8757 30.752 85.6177 30.4979 84.5817 29.9899C83.5457 29.4819 82.7169 28.7347 82.0657 27.7784C81.4293 26.8071 80.9557 25.6117 80.6745 24.1922C80.3785 22.7727 80.2305 21.1589 80.2305 19.3359C80.2305 17.6623 80.3933 16.1382 80.7041 14.7934C81.0149 13.4485 81.5033 12.2979 82.1693 11.3416C82.8353 10.4002 83.6789 9.66806 84.6853 9.16002C85.7065 8.65197 86.9201 8.39795 88.3261 8.39795C89.7469 8.39795 90.9013 8.62209 91.8041 9.07036C92.7069 9.51864 93.4173 10.1014 93.9649 10.8186C94.4977 11.5359 94.8825 12.3577 95.1193 13.2692C95.3561 14.1807 95.5189 15.1071 95.6225 16.0186H91.8041C91.7153 15.5405 91.6117 15.0773 91.4933 14.6439C91.3897 14.2106 91.2121 13.8221 90.9901 13.5083C90.7681 13.1945 90.4573 12.9405 90.0725 12.7462C89.6877 12.552 89.1697 12.4623 88.5185 12.4623C87.7341 12.4623 87.0681 12.5968 86.5353 12.8508C86.0025 13.1048 85.5585 13.5232 85.2329 14.106C84.9073 14.6888 84.6705 15.4508 84.5225 16.3922C84.3745 17.3336 84.3153 18.4991 84.3153 19.8888C84.3153 21.2934 84.4189 22.414 84.6113 23.2956C84.8037 24.1623 85.0849 24.8497 85.4401 25.3278C85.7953 25.8209 86.2245 26.1497 86.7425 26.329C87.2605 26.5083 87.8229 26.5979 88.4593 26.5979C89.1105 26.5979 89.6137 26.4933 89.9985 26.2991C90.3833 26.1048 90.6793 25.8209 90.9013 25.4474C91.1233 25.0738 91.3009 24.6405 91.4193 24.1324C91.5525 23.6244 91.6709 23.0566 91.8041 22.414H95.7113V22.429ZM111.917 30.3336H107.892V21.0543H101.824V30.3336H97.7981V8.83128H101.824V16.8554H107.892V8.83128H111.917V30.3336ZM128.893 30.3336H124.675L123.565 25.8956H118.207L117.112 30.3336H113.042L118.873 8.83128H122.869L128.893 30.3336ZM122.558 21.8911L120.901 14.9727L119.199 21.8911H122.558ZM140.718 30.3336L134.561 17.2439V30.3336H130.536V8.83128H134.487L140.688 21.8313V8.83128H144.684V30.3336H140.718ZM162.844 30.3336H159.573V28.152C159.336 28.675 159.04 29.0933 158.685 29.4221C158.33 29.7508 157.945 30.0048 157.531 30.1991C157.117 30.3934 156.673 30.5129 156.229 30.5876C155.785 30.6623 155.34 30.6922 154.911 30.6922C153.431 30.6922 152.188 30.4083 151.196 29.8255C150.205 29.2428 149.406 28.4508 148.799 27.4347C148.192 26.4186 147.763 25.2083 147.511 23.8186C147.26 22.429 147.126 20.9347 147.126 19.3359C147.126 12.0439 149.835 8.39795 155.267 8.39795C156.613 8.39795 157.738 8.62209 158.671 9.05542C159.603 9.48875 160.358 10.0865 160.935 10.8037C161.512 11.5359 161.927 12.3727 162.178 13.2991C162.43 14.2405 162.563 15.2117 162.563 16.1979H158.449C158.449 15.7646 158.419 15.3163 158.36 14.8531C158.301 14.3899 158.167 13.9865 157.96 13.6278C157.753 13.2692 157.427 12.9704 156.998 12.7462C156.569 12.5221 155.992 12.4025 155.252 12.4025C154.512 12.4025 153.875 12.5221 153.372 12.7761C152.854 13.0301 152.44 13.4186 152.114 13.9566C151.789 14.4945 151.552 15.1968 151.404 16.0485C151.256 16.9002 151.182 17.9313 151.182 19.1267C151.182 20.4416 151.241 21.5773 151.374 22.5186C151.507 23.46 151.729 24.2221 152.055 24.7899C152.381 25.3727 152.81 25.791 153.342 26.06C153.875 26.329 154.556 26.4635 155.385 26.4635C155.859 26.4635 156.303 26.3888 156.732 26.2393C157.161 26.0899 157.531 25.8508 157.842 25.537C158.153 25.2232 158.404 24.8048 158.582 24.3117C158.759 23.8186 158.833 23.2209 158.819 22.5186H155.03V18.5589H162.874V30.3336H162.844ZM178.873 30.3336H165.375V8.83128H178.636V13.0002H169.401V16.96H177.896V21.129H169.401V26.1347H178.873V30.3336Z" fill="#363636"/>
</g>
<defs>
<linearGradient id="paint0_linear_7029_133" x1="37.7404" y1="39" x2="37.7404" y2="0" gradientUnits="userSpaceOnUse">
<stop stop-color="#1C1C1C"/>
<stop offset="1" stop-color="#4B4B4B"/>
</linearGradient>
<linearGradient id="paint1_linear_7029_133" x1="130.241" y1="39" x2="130.241" y2="0" gradientUnits="userSpaceOnUse">
<stop stop-color="#BCBCBC"/>
<stop offset="1" stop-color="#F3F3F3"/>
</linearGradient>
<clipPath id="clip0_7029_133">
<rect width="185" height="39" fill="white"/>
</clipPath>
</defs>
</svg>
