<svg width="183" height="45" viewBox="0 0 183 45" fill="none" xmlns="http://www.w3.org/2000/svg">
<g clip-path="url(#clip0_7029_12186)">
<path d="M48.0943 16.0947H66.6237V19.4793H59.3379V38.5059H55.3316V19.4793H48.0781V16.0947H48.0943ZM65.8321 22.2788H69.2569V25.4103H69.3215C69.4346 24.9675 69.6446 24.5404 69.9515 24.1292C70.2585 23.718 70.63 23.3226 71.0662 22.9905C71.5024 22.6425 71.987 22.3737 72.5201 22.1522C73.0532 21.9466 73.6025 21.8359 74.1517 21.8359C74.5718 21.8359 74.8787 21.8517 75.0402 21.8676C75.2018 21.8834 75.3633 21.915 75.541 21.9308V25.3787C75.2826 25.3312 75.0241 25.2996 74.7495 25.268C74.4748 25.2364 74.2164 25.2205 73.9579 25.2205C73.344 25.2205 72.7624 25.3471 72.2132 25.5843C71.6639 25.8215 71.1954 26.1853 70.7916 26.644C70.3877 27.1185 70.0646 27.6878 69.8223 28.3837C69.58 29.0796 69.4669 29.8704 69.4669 30.7719V38.4901H65.8159V22.2788H65.8321ZM92.3257 38.5059H88.7394V36.2443H88.6748C88.2225 37.0667 87.5601 37.7151 86.6716 38.2054C85.7831 38.6957 84.8784 38.9488 83.9576 38.9488C81.7767 38.9488 80.1936 38.4269 79.2243 37.3672C78.255 36.3075 77.7704 34.7101 77.7704 32.575V22.2788H81.4213V32.227C81.4213 33.6504 81.696 34.6627 82.2614 35.2479C82.8106 35.833 83.6022 36.1336 84.6038 36.1336C85.3792 36.1336 86.0093 36.0228 86.5262 35.7856C87.0432 35.5484 87.4632 35.2479 87.7701 34.8525C88.0932 34.4729 88.3194 33.9984 88.4648 33.4607C88.6102 32.9229 88.6748 32.3377 88.6748 31.7051V22.2946H92.3257V38.5059ZM98.5453 33.3025C98.6584 34.3463 99.0622 35.0739 99.7569 35.5009C100.468 35.9121 101.308 36.1336 102.293 36.1336C102.632 36.1336 103.02 36.1019 103.456 36.0545C103.892 36.007 104.312 35.8963 104.684 35.754C105.072 35.6116 105.379 35.3902 105.637 35.1055C105.879 34.8208 105.993 34.4571 105.976 33.9984C105.96 33.5397 105.783 33.1601 105.459 32.8755C105.136 32.575 104.733 32.3535 104.232 32.1637C103.731 31.9898 103.166 31.8316 102.519 31.7051C101.873 31.5786 101.227 31.4362 100.565 31.2939C99.8861 31.1515 99.2238 30.9617 98.5937 30.7561C97.9637 30.5505 97.3983 30.2658 96.8975 29.9021C96.3967 29.5541 95.9928 29.0954 95.7021 28.5419C95.3951 27.9883 95.2497 27.3082 95.2497 26.4858C95.2497 25.6001 95.4759 24.8726 95.9121 24.2716C96.3482 23.6706 96.9137 23.1961 97.576 22.8323C98.2545 22.4686 98.9976 22.2155 99.8215 22.0573C100.645 21.915 101.437 21.8359 102.18 21.8359C103.036 21.8359 103.86 21.9308 104.636 22.1048C105.411 22.2788 106.122 22.5635 106.752 22.9747C107.382 23.3701 107.899 23.892 108.319 24.5246C108.739 25.1573 108.997 25.9323 109.11 26.8338H105.298C105.12 25.9797 104.733 25.3945 104.102 25.1098C103.472 24.8093 102.745 24.667 101.938 24.667C101.679 24.667 101.372 24.6828 101.017 24.7302C100.662 24.7777 100.338 24.8568 100.015 24.9675C99.7084 25.0782 99.4499 25.2522 99.2238 25.4736C99.0138 25.695 98.9007 25.9797 98.9007 26.3435C98.9007 26.7863 99.0622 27.1343 99.3692 27.4031C99.6761 27.672 100.08 27.8934 100.581 28.0832C101.082 28.2572 101.647 28.4154 102.293 28.5419C102.939 28.6684 103.602 28.8108 104.28 28.9531C104.943 29.0954 105.589 29.2852 106.235 29.4908C106.881 29.6965 107.446 29.9811 107.947 30.3449C108.448 30.7087 108.852 31.1515 109.159 31.6893C109.466 32.227 109.627 32.9071 109.627 33.6979C109.627 34.6627 109.401 35.4693 108.949 36.1494C108.497 36.8136 107.915 37.3672 107.204 37.7784C106.493 38.1896 105.686 38.5059 104.813 38.6957C103.941 38.8855 103.069 38.9804 102.212 38.9804C101.162 38.9804 100.193 38.8697 99.3045 38.6325C98.416 38.3952 97.6406 38.0473 96.9944 37.5886C96.3482 37.1141 95.8313 36.5289 95.4597 35.833C95.0882 35.1371 94.8943 34.2989 94.862 33.3341H98.5453V33.3025ZM110.597 22.2788H113.359V17.4075H117.01V22.2788H120.306V24.9517H117.01V33.6188C117.01 33.9984 117.026 34.3147 117.059 34.5994C117.091 34.8683 117.172 35.1055 117.285 35.2953C117.398 35.4851 117.575 35.6274 117.818 35.7223C118.06 35.8172 118.367 35.8647 118.787 35.8647C119.046 35.8647 119.304 35.8647 119.562 35.8489C119.821 35.833 120.079 35.8014 120.338 35.7382V38.5059C119.934 38.5534 119.53 38.585 119.159 38.6325C118.771 38.6799 118.383 38.6957 117.979 38.6957C117.01 38.6957 116.235 38.6008 115.653 38.4269C115.071 38.2529 114.603 37.984 114.28 37.6361C113.941 37.2881 113.731 36.8611 113.601 36.3392C113.488 35.8172 113.408 35.2162 113.391 34.552V24.9833H110.629V22.2788H110.597ZM122.89 22.2788H126.347V24.4772H126.412C126.929 23.5282 127.64 22.864 128.561 22.4527C129.481 22.0415 130.467 21.8359 131.549 21.8359C132.858 21.8359 133.989 22.0573 134.958 22.516C135.927 22.9589 136.735 23.5757 137.381 24.3665C138.027 25.1573 138.496 26.0746 138.819 27.1185C139.142 28.1623 139.303 29.2852 139.303 30.4714C139.303 31.5627 139.158 32.6224 138.867 33.6346C138.577 34.6627 138.14 35.5642 137.559 36.355C136.977 37.1458 136.234 37.7626 135.329 38.2371C134.425 38.7116 133.375 38.9488 132.147 38.9488C131.614 38.9488 131.081 38.9013 130.548 38.8064C130.015 38.7116 129.498 38.5534 129.013 38.3478C128.528 38.1422 128.06 37.8733 127.656 37.5412C127.236 37.209 126.897 36.8295 126.606 36.4024H126.541V44.5002H122.89V22.2788V22.2788ZM135.653 30.4082C135.653 29.6806 135.556 28.9689 135.362 28.273C135.168 27.5771 134.877 26.9761 134.489 26.4384C134.102 25.9006 133.617 25.4736 133.052 25.1573C132.47 24.841 131.808 24.667 131.065 24.667C129.53 24.667 128.367 25.1889 127.591 26.2328C126.816 27.2766 126.428 28.6684 126.428 30.4082C126.428 31.2306 126.525 31.9898 126.735 32.6857C126.945 33.3816 127.236 33.9826 127.656 34.4887C128.06 34.9948 128.544 35.3902 129.11 35.6749C129.675 35.9754 130.338 36.1177 131.081 36.1177C131.921 36.1177 132.615 35.9438 133.197 35.6116C133.779 35.2795 134.247 34.8366 134.619 34.3147C134.99 33.777 135.265 33.176 135.426 32.4959C135.572 31.8158 135.653 31.1199 135.653 30.4082V30.4082ZM142.098 16.0947H145.749V19.4793H142.098V16.0947ZM142.098 22.2788H145.749V38.5059H142.098V22.2788ZM149.012 16.0947H152.663V38.5059H149.012V16.0947ZM163.859 38.9488C162.534 38.9488 161.355 38.7274 160.321 38.3003C159.287 37.8733 158.414 37.2723 157.687 36.529C156.977 35.7698 156.427 34.8683 156.056 33.8244C155.684 32.7806 155.49 31.626 155.49 30.3765C155.49 29.1429 155.684 28.0041 156.056 26.9603C156.427 25.9164 156.977 25.0149 157.687 24.2558C158.398 23.4966 159.287 22.9114 160.321 22.4844C161.355 22.0573 162.534 21.8359 163.859 21.8359C165.183 21.8359 166.363 22.0573 167.396 22.4844C168.43 22.9114 169.303 23.5124 170.03 24.2558C170.74 25.0149 171.29 25.9164 171.661 26.9603C172.033 28.0041 172.227 29.1429 172.227 30.3765C172.227 31.626 172.033 32.7806 171.661 33.8244C171.29 34.8683 170.74 35.7698 170.03 36.529C169.319 37.2881 168.43 37.8733 167.396 38.3003C166.363 38.7274 165.183 38.9488 163.859 38.9488V38.9488ZM163.859 36.1177C164.666 36.1177 165.377 35.9438 165.975 35.6116C166.573 35.2795 167.057 34.8366 167.445 34.2989C167.833 33.7612 168.107 33.1443 168.301 32.4642C168.479 31.7842 168.576 31.0883 168.576 30.3765C168.576 29.6806 168.479 29.0006 168.301 28.3046C168.123 27.6087 167.833 27.0077 167.445 26.47C167.057 25.9323 166.573 25.5052 165.975 25.1731C165.377 24.841 164.666 24.667 163.859 24.667C163.051 24.667 162.34 24.841 161.742 25.1731C161.145 25.5052 160.66 25.9481 160.272 26.47C159.885 27.0077 159.61 27.6087 159.416 28.3046C159.238 29.0006 159.141 29.6806 159.141 30.3765C159.141 31.0883 159.238 31.7842 159.416 32.4642C159.594 33.1443 159.885 33.7612 160.272 34.2989C160.66 34.8366 161.145 35.2795 161.742 35.6116C162.34 35.9596 163.051 36.1177 163.859 36.1177V36.1177ZM173.293 22.2788H176.055V17.4075H179.706V22.2788H183.002V24.9517H179.706V33.6188C179.706 33.9984 179.722 34.3147 179.755 34.5994C179.787 34.8683 179.868 35.1055 179.981 35.2953C180.094 35.4851 180.272 35.6274 180.514 35.7223C180.756 35.8172 181.063 35.8647 181.483 35.8647C181.742 35.8647 182 35.8647 182.259 35.8489C182.517 35.833 182.776 35.8014 183.034 35.7382V38.5059C182.63 38.5534 182.226 38.585 181.855 38.6325C181.467 38.6799 181.079 38.6957 180.676 38.6957C179.706 38.6957 178.931 38.6008 178.349 38.4269C177.768 38.2529 177.299 37.984 176.976 37.6361C176.637 37.2881 176.427 36.8611 176.298 36.3392C176.185 35.8172 176.104 35.2162 176.088 34.552V24.9833H173.325V22.2788H173.293Z" fill="white"/>
<path d="M43.8276 16.0945H27.0914L21.9219 0.5L16.7362 16.0945L0 16.0787L13.5538 25.7265L8.36812 41.3052L21.9219 31.6733L35.4595 41.3052L30.29 25.7265L43.8276 16.0945Z" fill="#00B67A"/>
<path d="M31.4531 29.2525L30.29 25.7256L21.9219 31.6724L31.4531 29.2525Z" fill="#005128"/>
</g>
<defs>
<clipPath id="clip0_7029_12186">
<rect width="183" height="44" fill="white" transform="translate(0 0.5)"/>
</clipPath>
</defs>
</svg>
