<svg width="103" height="45" viewBox="0 0 103 45" fill="none" xmlns="http://www.w3.org/2000/svg">
<path d="M36.1177 36.5625H26.2311L23.2681 23.0836C23.127 22.5183 22.9041 21.3961 22.6007 19.7184C22.3413 18.3206 22.1187 16.9162 21.9334 15.5067C21.8205 16.4236 21.6371 17.5641 21.3831 18.9239C21.1291 20.2866 20.878 21.5381 20.631 22.6814C20.3841 23.8233 19.3569 28.4513 17.5509 36.5625H7.66433L0 5.625H8.06645L11.433 21.1359C12.1949 24.5644 12.717 27.2939 12.9992 29.3259C13.1826 27.8859 13.5113 25.9327 13.984 23.4633C14.4567 20.9953 14.8969 18.9492 15.3061 17.3264L18.0377 5.625H25.7867L28.4336 17.3264C28.8852 19.2038 29.3437 21.3694 29.8093 23.8233C30.2749 26.2786 30.5854 28.1123 30.7406 29.3259C30.924 27.7594 31.4249 25.0439 32.2432 21.1781L35.6733 5.625H43.7397L36.1177 36.5625Z" fill="#EF4035"/>
<path d="M95.2953 36.5625H86.7449V12.4594H79.0156V5.625H103.002V12.4594H95.2953V36.5625Z" fill="#FF961B"/>
<mask id="mask0_7029_117" style="mask-type:alpha" maskUnits="userSpaceOnUse" x="38" y="0" width="47" height="45">
<path d="M61.3754 45C48.5174 45 38.0946 34.927 38.0946 22.5C38.0946 10.073 48.5174 0 61.3754 0C74.2335 0 84.6562 10.073 84.6562 22.5C84.6562 34.927 74.2335 45 61.3754 45ZM61.3373 33.8077C66.809 33.8077 71.2451 28.7634 71.2451 22.5394C71.2451 16.3153 66.809 11.2697 61.3373 11.2697C55.8656 11.2697 51.4296 16.3153 51.4296 22.5394C51.4296 28.7634 55.8656 33.8077 61.3373 33.8077Z" fill="white"/>
</mask>
<g mask="url(#mask0_7029_117)">
<path d="M61.3754 45C48.5174 45 38.0946 34.927 38.0946 22.5C38.0946 10.073 48.5174 0 61.3754 0C74.2335 0 84.6562 10.073 84.6562 22.5C84.6562 34.927 74.2335 45 61.3754 45ZM61.3373 33.8077C66.809 33.8077 71.2451 28.7634 71.2451 22.5394C71.2451 16.3153 66.809 11.2697 61.3373 11.2697C55.8656 11.2697 51.4296 16.3153 51.4296 22.5394C51.4296 28.7634 55.8656 33.8077 61.3373 33.8077Z" fill="url(#paint0_linear_7029_117)"/>
<path fill-rule="evenodd" clip-rule="evenodd" d="M81.2247 33.7043C85.8944 20.7224 77.7803 4.21221 61.8577 5.95858C47.9252 7.48698 42.9828 28.5678 57.3514 32.613C41.9542 23.9489 64.8076 2.14371 73.5897 19.3347C82.1648 36.1203 65.7024 44.2194 53.2264 43.9955C63.2307 49.7288 78.3094 43.9409 81.2247 33.7043Z" fill="url(#paint1_linear_7029_117)"/>
<path fill-rule="evenodd" clip-rule="evenodd" d="M41.3106 36.0888C50.1263 47.118 68.5619 48.1628 75.2414 32.5492C81.0856 18.8889 65.4154 3.41735 54.5313 14.5999C69.9347 4.85735 77.0192 37.2475 57.6524 36.4684C38.7413 35.7091 40.2101 16.3113 46.819 4.90095C36.7222 11.177 33.968 28.1013 41.312 36.0888" fill="url(#paint2_linear_7029_117)"/>
</g>
<defs>
<linearGradient id="paint0_linear_7029_117" x1="84.6563" y1="1.3428" x2="39.588" y2="45.1921" gradientUnits="userSpaceOnUse">
<stop stop-color="#5CE379"/>
<stop offset="1" stop-color="#347A44"/>
</linearGradient>
<linearGradient id="paint1_linear_7029_117" x1="39.7443" y1="17.3266" x2="89.5366" y2="31.9975" gradientUnits="userSpaceOnUse">
<stop stop-color="#347A44"/>
<stop offset="1" stop-color="#5CE379"/>
</linearGradient>
<linearGradient id="paint2_linear_7029_117" x1="76.2914" y1="4.90095" x2="37.2932" y2="44.2468" gradientUnits="userSpaceOnUse">
<stop stop-color="#347A44"/>
<stop offset="1" stop-color="#5CE379"/>
</linearGradient>
</defs>
</svg>
